<?xml version="1.0" encoding="UTF-8"?>
<!DOCTYPE svg PUBLIC "-//W3C//DTD SVG 1.1//EN" "http://www.w3.org/Graphics/SVG/1.1/DTD/svg11.dtd">
<svg xmlns="http://www.w3.org/2000/svg" version="1.1" width="512px" height="512px" style="shape-rendering:geometricPrecision; text-rendering:geometricPrecision; image-rendering:optimizeQuality; fill-rule:evenodd; clip-rule:evenodd" xmlns:xlink="http://www.w3.org/1999/xlink">
<g><path style="opacity:1" fill="#e6b900" d="M 202.5,-0.5 C 205.5,-0.5 208.5,-0.5 211.5,-0.5C 216.121,2.58936 217.621,6.92269 216,12.5C 203.497,26.1547 191.997,40.488 181.5,55.5C 109.856,95.0287 65.3557,155.029 48,235.5C 40.5302,277.6 42.3635,319.266 53.5,360.5C 29.0576,308.551 22.2242,254.218 33,197.5C 54.7622,101.575 111.262,35.5746 202.5,-0.5 Z"/></g>
<g><path style="opacity:0.993" fill="#fecc00" d="M 181.5,55.5 C 132.363,139.806 131.196,224.806 178,310.5C 226.837,388.194 297.504,428.527 390,431.5C 416.905,431.252 443.072,426.752 468.5,418C 479.161,415.664 483.661,419.831 482,430.5C 436.258,477.952 380.425,504.952 314.5,511.5C 299.5,511.5 284.5,511.5 269.5,511.5C 231.392,507.522 195.392,496.356 161.5,478C 156.594,475.058 151.928,471.891 147.5,468.5C 148.75,468.423 149.583,467.756 150,466.5C 161.61,428.927 151.11,399.427 118.5,378C 99.3837,368.497 79.717,366.997 59.5,373.5C 57.2288,369.291 55.2288,364.958 53.5,360.5C 42.3635,319.266 40.5302,277.6 48,235.5C 65.3557,155.029 109.856,95.0287 181.5,55.5 Z"/></g>
<g><path style="opacity:0.973" fill="#ffcd00" d="M 314.5,147.5 C 317.862,147.07 320.695,148.07 323,150.5C 326.866,163.266 331.033,175.932 335.5,188.5C 349.154,189.333 362.821,189.833 376.5,190C 378.329,190.273 379.829,191.107 381,192.5C 381.79,195.634 381.457,198.634 380,201.5C 368.541,208.975 357.708,217.142 347.5,226C 351.132,237.895 354.965,249.729 359,261.5C 360.183,270.156 356.683,272.99 348.5,270C 338,262.167 327.5,254.333 317,246.5C 306.5,254.333 296,262.167 285.5,270C 277.95,272.984 274.45,270.484 275,262.5C 279.176,249.973 283.342,237.473 287.5,225C 275.718,216.886 264.218,208.386 253,199.5C 251.462,194.831 252.962,191.664 257.5,190C 271.167,189.667 284.833,189.333 298.5,189C 303.06,176.653 307.227,164.153 311,151.5C 311.69,149.65 312.856,148.316 314.5,147.5 Z"/></g>
<g><path style="opacity:1" fill="#e6b900" d="M 147.5,468.5 C 109.844,444.512 80.5111,412.846 59.5,373.5C 79.717,366.997 99.3837,368.497 118.5,378C 151.11,399.427 161.61,428.927 150,466.5C 149.583,467.756 148.75,468.423 147.5,468.5 Z"/></g>
</svg>
