<?xml version="1.0" encoding="UTF-8"?>
<!DOCTYPE svg PUBLIC "-//W3C//DTD SVG 1.1//EN" "http://www.w3.org/Graphics/SVG/1.1/DTD/svg11.dtd">
<svg xmlns="http://www.w3.org/2000/svg" version="1.1" width="512px" height="512px" style="shape-rendering:geometricPrecision; text-rendering:geometricPrecision; image-rendering:optimizeQuality; fill-rule:evenodd; clip-rule:evenodd" xmlns:xlink="http://www.w3.org/1999/xlink">
<g><path style="opacity:0.991" fill="#ffba55" d="M 254.5,9.5 C 258.16,19.7129 263.827,28.8795 271.5,37C 292.227,53.3613 313.894,54.6947 336.5,41C 341.333,37.5 345.5,33.3333 349,28.5C 347.273,60.6042 361.773,80.7709 392.5,89C 405.496,91.0345 417.496,88.5345 428.5,81.5C 428.833,81.8333 429.167,82.1667 429.5,82.5C 415.622,109.142 419.955,132.308 442.5,152C 454.699,160.05 468.032,163.383 482.5,162C 458.376,183.249 454.542,207.749 471,235.5C 478.93,245.55 489.096,252.217 501.5,255.5C 476.41,263.262 462.743,280.262 460.5,306.5C 461.113,324.227 468.446,338.394 482.5,349C 450.396,347.273 430.229,361.773 422,392.5C 419.966,405.496 422.466,417.496 429.5,428.5C 429.167,428.833 428.833,429.167 428.5,429.5C 401.858,415.622 378.692,419.955 359,442.5C 350.945,454.721 347.611,468.054 349,482.5C 327.751,458.376 303.251,454.542 275.5,471C 265.437,478.964 258.771,489.13 255.5,501.5C 247.738,476.41 230.738,462.743 204.5,460.5C 186.773,461.113 172.606,468.446 162,482.5C 163.727,450.396 149.227,430.229 118.5,422C 105.504,419.966 93.5036,422.466 82.5,429.5C 82.1667,429.167 81.8333,428.833 81.5,428.5C 95.378,401.858 91.0447,378.692 68.5,359C 56.3014,350.95 42.9681,347.617 28.5,349C 52.6244,327.751 56.4577,303.251 40,275.5C 32.0364,265.437 21.8697,258.771 9.5,255.5C 34.5902,247.738 48.2568,230.738 50.5,204.5C 49.8874,186.773 42.5541,172.606 28.5,162C 60.6042,163.727 80.7709,149.227 89,118.5C 91.0345,105.504 88.5345,93.5036 81.5,82.5C 81.8333,82.1667 82.1667,81.8333 82.5,81.5C 109.142,95.378 132.308,91.0447 152,68.5C 160.028,56.3882 163.361,43.0549 162,28.5C 183.249,52.6244 207.749,56.4577 235.5,40C 245.77,32.2413 252.103,22.0747 254.5,9.5 Z"/></g>
<g><path style="opacity:1" fill="#ffdd75" d="M 351.5,369.5 C 293.239,393.675 239.573,386.175 190.5,347C 150.013,309.217 133.513,262.717 141,207.5C 147.605,174.607 162.772,146.607 186.5,123.5C 219.04,106.162 253.374,101.662 289.5,110C 345.95,125.116 382.783,160.616 400,216.5C 412.039,269.001 400.706,315.667 366,356.5C 361.594,361.411 356.76,365.745 351.5,369.5 Z"/></g>
<g><path style="opacity:1" fill="#ffcc66" d="M 186.5,123.5 C 162.772,146.607 147.605,174.607 141,207.5C 133.513,262.717 150.013,309.217 190.5,347C 239.573,386.175 293.239,393.675 351.5,369.5C 318.143,396.779 279.81,408.279 236.5,404C 165.21,390.709 122.376,348.543 108,277.5C 101.135,213.411 124.302,163.578 177.5,128C 180.553,126.473 183.553,124.973 186.5,123.5 Z"/></g>
</svg>
